<?xml version="1.0" encoding="UTF-8" standalone="no"?>
<svg xmlns:rdf="http://www.w3.org/1999/02/22-rdf-syntax-ns#" xmlns="http://www.w3.org/2000/svg" xml:space="preserve" height="150.55" viewBox="0 0 585.54187 150.54649" width="585.54" version="1.1" xmlns:cc="http://creativecommons.org/ns#" xmlns:dc="http://purl.org/dc/elements/1.1/"><defs><clipPath id="d" clipPathUnits="userSpaceOnUse"><path d="m0 0h774v828h-774v-828z"/></clipPath><clipPath id="c" clipPathUnits="userSpaceOnUse"><path d="m0 0h774v828h-774v-828z"/></clipPath><clipPath id="b" clipPathUnits="userSpaceOnUse"><path d="m0 0h774v828h-774v-828z"/></clipPath><clipPath id="a" clipPathUnits="userSpaceOnUse"><path d="m0 0h774v828h-774v-828z"/></clipPath></defs><g transform="matrix(1.25 0 0 -1.25 -191.98 700.65)"><g style="" transform="translate(3.2988 .54980)"><g fill="#9e1b32" transform="translate(603.48 441.17)"><path d="m274.18 60.732c-12.012 0-24.297 1.3633-36.309 1.3633 3.0012 4.6412 3.002 11.74 3.002 17.883v34.943c0 10.51-0.00015 24.569-4.5039 34.262 9.2825 0 18.426 0.54493 27.709 0.54493 18.562 0 34.943-6.2795 34.943-27.846 0-14.741-10.92-19.793-23.613-22.66v-0.27148c9.6912-4.0938 19.109-9.8281 19.109-21.703 0-11.876-9.6904-16.516-20.338-16.516zm-177.72 1.364c3.0025 4.6412 3.0039 11.74 3.0039 17.883v38.219c0 6.415-0.54633 25.663-4.6426 30.986h37.813c2.7288 0 5.5955-0.1389 8.3242-0.41015l2.5938-12.83c-6.825 6.6875-13.786 7.7812-21.43 7.7812h-10.375v-63.746c0-6.1425 0.001-13.242 3.0039-17.883h-18.291zm296.53 0c3.275 2.0475 3.4121 3.9595 3.4121 7.6445v34.125c0 14.741-0.54765 36.307-5.5976 43.543l-1.2285 1.7734h16.242c-3.0025-4.505-3.002-13.377-3.002-24.023l0.13477-44.363c0-2.0462 0.00047-4.502 1.2305-4.502 1.2288 0 2.1856 3.2756 3.6856 7.2344l25.934 67.02 30.576-72.207c0.41125-1.0925 0.82039-2.0469 1.7754-2.0469 0.95625 0 0.95508 1.637 0.95508 3.002v45.314c0 7.6475-0.00023 17.747-2.459 24.572h20.066c-3.0025-5.4575-3.548-11.737-4.2305-17.881-1.775-16.38-1.0918-33.442-1.0918-49.822 0-6.825-0.41024-14.197 2.7285-19.383h-13.922c-3.4112 0-4.3657 2.8662-5.5957 5.7324l-23.61 56.934c-0.8175 1.91-1.2308 3.2754-2.457 3.2754-1.0925 0-1.5004-2.3209-2.1816-4.3672l-20.2-59.515c-0.5425-1.7738-2.5917-2.0488-4.2305-2.0488h-16.924zm-353.95 0.002-0.13476 3.6836c0 11.194-28.118 69.753-35.898 79.58l-2.997 3.82h17.061c-0.2725-1.7762-0.4082-3.4138-0.4082-5.1875 0-7.7812 6.143-21.157 12.012-33.033h30.713l14.879 38.221h14.74l-2.7285-5.0508c-13.65-25.252-22.387-54.871-31.123-82.035h-16.107zm143.62 0-0.13672 3.6836c0 11.194-28.119 69.753-35.9 79.58l-3 3.8203h17.061c-0.2725-1.775-0.4082-3.4118-0.4082-5.1856 0-7.7812 6.1417-21.157 12.012-33.033h30.711l14.879 38.219h14.742l-2.7305-5.0488c-13.65-25.252-22.387-54.873-31.123-82.035h-16.105zm154 0-0.13477 3.6836c0 11.194-28.118 69.753-35.898 79.58l-3.0039 3.8203h17.062c-0.2725-1.775-0.41016-3.4118-0.41016-5.1856 0-7.7812 6.143-21.157 12.012-33.033h30.713l14.879 38.219h14.74l-2.7285-5.0488c-13.65-25.252-22.388-54.873-31.123-82.035h-16.107zm190.5 0-0.13672 3.6836c0 11.194-28.12 69.751-35.898 79.58l-3.002 3.8203h17.062c-0.27375-1.775-0.41016-3.4118-0.41016-5.1856 0-7.7812 6.143-21.157 12.012-33.033h30.711l14.879 38.219h14.74l-2.7285-5.0488c-13.64-25.25-22.37-54.87-31.11-82.032h-16.107zm-265.54 4.0938c11.192 0 19.52 1.7736 19.52 14.059 0 14.469-12.284 18.291-24.297 18.291h-3.6856v-31.803c3.0038-0.27375 5.8691-0.54688 8.4629-0.54688zm-216.43 6.824c1.2288 0 2.0498 2.3223 2.3223 3.2773l9.5547 29.211h-26.072l11.877-29.211c0.27375-0.6825 1.0909-3.2773 2.3184-3.2773zm143.62 0c1.2288 0 2.0478 2.3223 2.3203 3.2773l9.5547 29.209h-26.07l11.875-29.209c0.2725-0.6825 1.0916-3.2773 2.3203-3.2773zm154 0c1.2287 0 2.0492 2.3223 2.3242 3.2773l9.5527 29.209h-26.07l11.875-29.209c0.2725-0.6825 1.0908-3.2773 2.3184-3.2773zm190.5 0c1.2262 0 2.0446 2.3204 2.3184 3.2754l9.5566 29.211h-26.072l11.875-29.211c0.27375-0.68125 1.0948-3.2754 2.3223-3.2754zm-280.14 30.439h2.3203c15.698 0 29.348 2.048 29.348 20.748 0 14.605-8.5997 20.066-22.523 20.066-9.145 0-9.1445-3.4111-9.1445-19.246v-21.568z" transform="matrix(.8 0 0 -.8 -449.9 119.35)" fill="#9e1b32"/></g><path d="m366.34 2c-4.8588 0-8.9141 3.1648-8.9141 7.3535 0 4.4138 2.8974 6.3329 5.4824 8.3379 2.5425 1.8725 7.2207 4.4122 7.2207 8.3359 0 3.4762-2.3625 5.127-5.4375 5.127-2.9412 0-4.9466-1.427-6.7754-2.7207l-1.918 2.5859c2.2275 2.1838 5.7938 3.2539 8.7812 3.2539 4.9925 0 9.6738-3.2095 9.6738-8.1582 0-4.0112-2.4954-6.8631-6.7754-9.9844-4.0112-2.8962-5.9277-4.5473-5.9277-6.7773 0-2.4062 1.7381-4.2324 4.8594-4.2324 1.8712-1e-7 3.8763 1.1135 5.3926 2.2285l2.0508-2.2285c-1.74-1.9619-4.46-3.1205-7.71-3.1205zm148.85 0c-9.0062 0-15.604 6.8641-15.604 15.602 0 9.3163 5.9748 16.672 15.604 16.672 9.6288 0 15.602-7.3556 15.602-16.672 0-8.7379-6.6-15.602-15.6-15.602zm-259.09 0.089844-4.4141 0.80078 11.547 30.848h2.8965l12.438-31.115-3.877-0.5332c-3.165 8.5138-6.3761 17.071-9.4961 26.656h-0.0898c-2.9862-9.585-5.9727-18.142-9.0039-26.656zm190.22 0-4.6816 0.89258 9.4062 17.25v13.506h4.3262v-13.506l10.5-17.609-3.83-0.5332-8.2 14.799-7.54-14.799zm-428.85 0.44531v3.1191h9.9844v28.084h4.3223v-28.084h10.031v-3.1191h-24.338zm37.758 0v31.203h4.3242v-15.514h15.246v15.514h4.3223v-31.203h-4.3223v12.572h-15.246v-12.572h-4.3242zm40.834 0v31.205h17.297v-3.1211h-12.973v-11.77h10.832v-3.1191h-10.832v-10.076h11.055v-3.1191h-15.379zm53.404 0v19.078c0 8.025 3.5222 12.662 12.305 12.662 7.5338 0 11.859-4.9934 11.859-11.992v-19.748h-4.0586v19.658c0 4.4575-1.962 9.0938-7.8008 9.0938-5.5725 0-7.9785-3.3891-7.9785-9.8516v-18.9h-4.3262zm40.656 0v31.203h3.5664v-24.83h0.0898c1.8738 2.72 13.508 16.716 20.283 24.83h3.3867v-31.203h-3.5664v24.873h-0.0879c-2.095-3.1212-13.596-16.761-20.461-24.873h-3.2109zm44.268 0v31.203h4.3242v-31.203h-4.3242zm57.15 0v31.205h17.295v-3.1211h-12.971v-11.77h10.832v-3.1191h-10.832v-10.076h11.057v-3.1191h-15.381zm31.607 0v31.203h4.3242v-12.926h4.5898l7.2226 13.463 4.3672-1.3379-7.7559-13.285c2.9862-1.9162 5.2148-4.5025 5.2148-9.0938 0-5.3938-3.9651-8.0234-9.0488-8.0234h-8.9141zm66.867 0v31.203h4.3242v-31.203h-4.3242zm17.744 0v3.1191h9.9844v28.084h4.3242v-28.084h10.029v-3.1191h-24.338zm138.37 0v31.205h4.3242v-13.107h10.832v-3.1211h-10.832v-11.857h11.055v-3.1191h-15.379zm-30.938 2.584c7.7112 0 10.832 6.6424 10.832 12.482 0 6.1062-2.7633 13.553-10.832 13.553-8.0688 0-10.832-7.4465-10.832-13.553 0-5.84 3.1208-12.482 10.832-12.482zm-187.72 0.53516h3.6992c2.8975 0 5.3027 1.4709 5.3027 5.3047 0 2.63-1.024 6.7324-6.5527 6.7324h-2.4492v-12.037z" transform="matrix(.8 0 0 -.8 153.58 560.52)" fill="#828a8f"/></g><g clip-path="url(#d)"/><g clip-path="url(#c)"/><g clip-path="url(#b)"/><g clip-path="url(#a)"/></g></svg>
